<svg width="40" height="40" viewBox="0 0 40 40" fill="none" xmlns="http://www.w3.org/2000/svg">
<circle cx="20" cy="20" r="20" transform="matrix(-1 0 0 1 40 0)" fill="#131313"/>
<path d="M21.4001 20.71C21.4938 20.617 21.5682 20.5064 21.619 20.3846C21.6698 20.2627 21.6959 20.132 21.6959 20C21.6959 19.868 21.6698 19.7373 21.619 19.6154C21.5682 19.4936 21.4938 19.383 21.4001 19.29L16.8101 14.71C16.7164 14.617 16.642 14.5064 16.5912 14.3846C16.5404 14.2627 16.5143 14.132 16.5143 14C16.5143 13.868 16.5404 13.7373 16.5912 13.6154C16.642 13.4936 16.7164 13.383 16.8101 13.29C16.9975 13.1037 17.2509 12.9992 17.5151 12.9992C17.7793 12.9992 18.0327 13.1037 18.2201 13.29L22.8101 17.88C23.3719 18.4425 23.6875 19.205 23.6875 20C23.6875 20.795 23.3719 21.5575 22.8101 22.12L18.2201 26.71C18.0338 26.8947 17.7824 26.9989 17.5201 27C17.3885 27.0008 17.258 26.9755 17.1362 26.9258C17.0144 26.876 16.9035 26.8027 16.8101 26.71C16.7164 26.617 16.642 26.5064 16.5912 26.3846C16.5404 26.2627 16.5143 26.132 16.5143 26C16.5143 25.868 16.5404 25.7373 16.5912 25.6154C16.642 25.4936 16.7164 25.383 16.8101 25.29L21.4001 20.71Z" fill="white"/>
</svg>
